<!--?xml version="1.0" standalone="no"?--><svg version="1.0" xmlns="http://www.w3.org/2000/svg" width="227.000000pt" height="300.000000pt" viewBox="0 0 227.000000 300.000000" preserveAspectRatio="xMidYMid meet">
<metadata>
  <rdf:rdf xmlns:rdf="http://www.w3.org/1999/02/22-rdf-syntax-ns#" xmlns:rdfs="http://www.w3.org/2000/01/rdf-schema#" xmlns:dc="http://purl.org/dc/elements/1.1/">
    <rdf:description dc:title="Christmas ornament black" dc:publisher="Hiox" dc:date="2015-12-16" dc:format="image/svg+xml" dc:language="en">
      <dc:creator>
        <rdf:bag>
          <rdf:li>svgimages.com</rdf:li>
        </rdf:bag>
      </dc:creator>
    </rdf:description>
  </rdf:rdf>
</metadata>
<g transform="translate(0.000000,300.000000) scale(0.100000,-0.100000)" fill="#0A0A0A" stroke="none">
<path stroke-width="20" class="node" id="node1" d="M563 2965 c-59 -30 -97 -75 -126 -149 -24 -63 -27 -160 -6 -200 13
-23 14 -36 5 -69 -9 -33 -21 -47 -63 -74 -95 -61 -103 -111 -44 -303 l38 -125
-59 -65 c-125 -138 -218 -306 -264 -475 -74 -276 -49 -535 76 -790 69 -140
129 -223 235 -324 144 -136 303 -225 504 -279 87 -23 114 -26 276 -26 163 0
189 3 277 26 432 117 743 445 833 877 36 172 29 330 -21 520 -105 400 -446
719 -862 806 -35 8 -66 16 -69 18 -2 3 -20 58 -39 123 -41 136 -56 168 -89
190 -29 19 -119 44 -161 44 -30 0 -31 1 -38 56 -8 72 -33 120 -89 171 -81 75
-218 96 -314 48z m206 -139 c44 -23 65 -77 58 -153 -4 -38 -2 -63 3 -63 6 0
27 -16 49 -35 35 -32 44 -35 99 -35 104 0 114 -13 55 -74 -105 -109 -438 -194
-557 -142 -21 10 -35 20 -31 24 3 4 32 20 63 37 56 30 57 31 62 81 3 27 13 63
23 78 17 26 106 76 135 76 18 0 16 100 -4 128 -11 16 -25 22 -52 22 -47 0 -79
-22 -87 -60 -10 -48 -29 -37 -21 12 9 54 35 99 67 116 28 15 96 9 138 -12z
m339 -533 c32 -107 39 -140 30 -156 -14 -27 -18 -19 -62 137 -35 121 -39 156
-18 156 5 0 27 -61 50 -137z m-52 -50 c35 -126 44 -176 29 -161 -6 5 -85 282
-85 295 0 7 3 13 8 13 4 0 26 -66 48 -147z m-66 114 c0 -8 18 -74 40 -147 22
-73 40 -136 40 -140 0 -25 -225 -110 -291 -110 -23 0 -27 6 -38 56 -7 30 -15
53 -18 51 -2 -3 0 -22 6 -44 12 -42 14 -70 5 -61 -5 6 -84 286 -84 300 0 4 33
14 73 23 39 9 110 31 157 49 98 39 110 41 110 23z m-410 -159 c12 -40 32 -108
45 -150 l23 -78 -22 0 c-11 0 -27 4 -34 9 -11 7 -92 255 -92 282 0 5 13 9 30
9 28 0 30 -4 50 -72z m87 -84 c23 -81 40 -151 37 -153 -11 -11 -24 22 -59 149
-21 74 -40 141 -43 149 -3 9 0 12 9 9 8 -3 31 -64 56 -154z m713 -40 c88 -25
230 -90 230 -105 0 -5 7 -9 15 -9 9 0 27 -11 41 -25 14 -14 27 -25 31 -25 21
0 183 -174 183 -197 0 -7 4 -13 10 -13 15 0 97 -177 114 -245 18 -73 24 -110
32 -200 7 -76 -11 -248 -27 -253 -5 -2 -7 -8 -3 -13 8 -14 -16 -82 -34 -96
-10 -8 -11 -13 -4 -13 11 0 0 -24 -67 -149 -75 -138 -261 -295 -429 -360 -157
-60 -352 -78 -514 -47 -89 17 -223 67 -270 101 -18 13 -47 31 -65 40 -45 23
-162 139 -220 215 -59 80 -116 199 -144 305 -42 156 -24 439 35 554 7 14 26
52 41 84 16 31 35 57 42 57 8 0 11 5 8 11 -10 16 37 78 123 162 l78 75 100 -5
c81 -5 115 -2 182 15 108 28 201 74 254 127 l43 43 65 -5 c36 -3 103 -16 150
-29z"></path>




















</g>
<g transform="translate(0.000000,300.000000) scale(0.100000,-0.100000)" fill="#9F9F9F" stroke="none">









</g>
</svg>