<?xml version="1.0" encoding="utf-8"?>
<!-- Svg Vector Icons : http://www.onlinewebfonts.com/icon -->
<!DOCTYPE svg PUBLIC "-//W3C//DTD SVG 1.1//EN" "http://www.w3.org/Graphics/SVG/1.1/DTD/svg11.dtd">
<svg version="1.1" xmlns="http://www.w3.org/2000/svg" xmlns:xlink="http://www.w3.org/1999/xlink" x="0px" y="0px" viewBox="0 0 1000 1000" enable-background="new 0 0 1000 1000" xml:space="preserve">
<metadata> Svg Vector Icons : http://www.onlinewebfonts.com/icon </metadata>
<g><path d="M442.9,366.8c0,32.1,26,58.1,58.1,58.1s58.1-26,58.1-58.1c0-32.1-26-58.1-58.1-58.1S442.9,334.7,442.9,366.8z"/><path d="M500,10C259.5,10,64.6,206.5,64.6,448.8c0,348.2,398.6,532.9,398.6,532.9c20.3,10.6,53.3,11.2,73.9,0.4c0,0,398.3-177.3,398.3-533.3C935.4,206.5,740.5,10,500,10z M664.6,678.2H337.3v-40.9h327.3V678.2z M514.6,623.6c-7.1,6-20.1,6-27.3,0c-3-2.7-150-100.5-150-239.8c0-92.2,73.2-169.3,163.6-169.3c90.4,0,163.6,77,163.6,169.3C664.6,526.1,517.9,620.7,514.6,623.6z"/></g>
</svg>