<?xml version="1.0" encoding="utf-8"?>
<!-- Generator: Adobe Illustrator 18.1.0, SVG Export Plug-In . SVG Version: 6.00 Build 0)  -->
<!DOCTYPE svg PUBLIC "-//W3C//DTD SVG 1.1//EN" "http://www.w3.org/Graphics/SVG/1.1/DTD/svg11.dtd">
<svg version="1.1" id="Layer_1" xmlns="http://www.w3.org/2000/svg" xmlns:xlink="http://www.w3.org/1999/xlink" x="0px" y="0px"
	 viewBox="0 0 612 792" enable-background="new 0 0 612 792" xml:space="preserve">
<path fill="green" stroke="#000000" stroke-miterlimit="10" d="M110.4,671c0.3-3.9,0.5-7.8,0.9-11.7c0.1-0.9,0.8-1.9,1.5-2.5
	c3.2-2.6,6.7-4.9,9.7-7.7c1.3-1.2,2.1-3.2,2.8-4.9c2.4-6.3,3.2-12.9,3.5-19.6c0.6-11.7,0-23.4-1.1-35c-0.6-6.5,0.7-12.4,5-17.4
	c5.8-6.7,11.7-13.2,17.5-20c3.8-4.5,7.7-9,11-13.9c6-9,6.6-19.2,4.8-29.6c-1.7-9.5-3.9-18.8-5.4-28.3c-1.5-9.2-3-18.4-0.7-27.7
	c0.9-3.5,1.8-7,2.7-10.7c-0.6-0.1-1.1-0.2-1.7-0.3c-4.7-0.4-9.2-1.6-13.4-3.9c-7.2-3.9-14.1-8.2-19.7-14.3
	c-3.9-4.3-5.3-9.2-4.1-14.9c2-9.2,6.8-16.8,13.4-23.9c0.4,4.1,0.4,7.8,1.1,11.3c1,4.7,2.1,9.5,4.1,13.9
	c5.1,10.9,13.6,17.6,25.8,19.3c1.8,0.3,3-0.2,4.3-1.5c7.8-7.7,16.1-14.8,26.7-18c7.2-2.2,14.8-3.4,22.3-5c3.8-0.8,7.7-1.2,11.6-1.9
	c6.1-1,11.8-3,16.9-6.5c10.2-7.2,20.9-13.2,32.1-18.7c15.1-7.5,27.2-18.4,36.9-32.1c4.7-6.6,9.3-13.4,13.3-20.5
	c4.8-8.6,5.8-18.4,6.7-28.1c0.6-7,1.5-13.9,2-20.9c0.2-3.3,0.3-6.7-0.5-9.9c-3.1-12.4-3-24.8-1.7-37.4c0.2-2.1,1.1-4.5,0.3-6.1
	c-0.8-1.4-3.4-1.9-5.2-2.8c-3.4-1.7-6.1-4.2-8.1-7.4c-2.4-3.9-4.6-7.8-7-12c7.6-2.7,14.4-1.6,21.4,3.2c-0.3-1.7-0.4-2.8-0.6-3.8
	c-2-9.4-6.8-17.6-11.8-25.6c-4.8-7.8-10-15.4-14.2-23.5c-8.6-16.7-0.9-34.8,16.9-40.7c-0.7,0.6-1.4,1.2-2.1,1.8
	c-9,7.8-13.2,17.5-10.7,29.4c1.3,6.3,3.7,12.2,8.4,16.6c4.4,4.2,8.9,2.9,10.8-2.8c1.4-4.1,2.3-8.3,3.9-12.3c1.4-3.6,3-7.3,5.2-10.5
	c2.8-4.2,7.2-6.1,12.5-6.3c-2,1.9-4,3.4-5.5,5.2c-5.2,6.1-7.8,13.4-9.1,21.1c-0.8,4.8-1.1,9.6,0.3,14.4c1.3,4.4,3.7,6.4,8,6.8
	c11,1.1,20.9-7.4,21.6-18.4c0.1-1,0-1.9,0-3.5c0.5,0.9,0.7,1.2,0.8,1.5c1.7,4.3,1.7,8.7,0.1,13.1c-0.7,1.9-1.6,3.8-2.3,5.8
	c-1,2.9-0.4,4.4,2.5,5.3c1.9,0.6,4.1,0.9,6.1,0.7c5.8-0.7,10.7-3.5,14.7-7.6c3.2-3.2,6.1-6.9,9-10.2c0-0.1,0.1,0,0,0.1
	c-0.5,1.9-1,3.9-1.6,5.8c-3.2,9.7-9.6,15.7-19.9,17.3c-6.8,1-13.5,0.1-20.2-0.7c-3.4-0.4-6.9-0.7-10.3-0.2
	c-6.6,0.9-8.7,6.1-5.1,11.7c0.5,0.8,1.2,1.6,1.9,2.3c4.9,4.8,10.5,8.3,17.6,8.6c2.6,0.1,5.2,0.4,7.8,0.5c19.5,0.8,37.8,6.7,56,12.9
	c3.4,1.2,6.5,3.5,9.3,5.7c2.8,2.2,2.8,5.5,2,8.9c-0.9,3.3-3.2,4.4-6.2,5c-1.5,0.3-3.3,0.7-4.4,1.7c-4.4,3.7-9,6.4-15,6.6
	c-4.8,0.2-9.3,2.1-12.7,5.8c-1.5,1.6-2.2,3.3-1.9,5.8c0.8,8.6,1.5,17.2,1.6,25.8c0,7.8-0.8,15.7-1.4,23.5c-0.4,5.1,0.7,9.8,3.4,14.1
	c1.3,2,2.5,4.1,3.8,6.1c2.6,4.2,5.4,8.3,7.7,12.6c5.5,10.4,8.2,21.7,10.7,33c0.5,2.1,1,4.2,1.4,6.4c0.6-0.1,0.8-0.2,1-0.2
	c17.2-5.1,34.5-10.3,51.7-15.4c5.4-1.6,8.1-0.4,11.2,4.3c1.7,2.6,3.5,5.2,5.3,7.8c0,1.7,0,3.4,0,5.1c-2.4,4.9-4.5,9.9-7.2,14.6
	c-5.4,9.4-8,19.3-7,30.3c0.5,5.6,0,11.2-0.1,16.8c0,2.3-0.7,4.3-2.5,5.7c-9.1,7.5-16,16.8-23,26.1c-0.8,1.1-1.7,2.2-2.7,3.1
	c-1.3,1.3-2.3,0.9-2.7-0.9c-0.2-0.7-0.2-1.6-0.1-2.3c0.8-4.7-0.1-9.2-1.1-13.7c-0.6-2.7,0.1-4.7,1.9-6.5c1.7-1.6,3.6-3.2,5.5-4.6
	c3.8-3,6.1-6.6,6.4-11.7c0.4-9.1,1.1-18.1,1.9-27.2c0.3-3.6,1.1-7.1,1.8-11c-1,0.3-1.7,0.6-2.4,0.9c-7.9,3.2-14.6,8.2-20.9,13.7
	c-4,3.5-8.1,6.9-12,10.4c-4.3,3.9-9.2,6.6-14.9,7.9c-6.7,1.5-12.9,4.3-18.9,7.8c-14.9,8.8-31.3,13.9-48.1,17.6
	c-16.1,3.5-32.3,6.4-48.4,9.9c-11.4,2.4-22.4,6.1-32.8,11.3c-10.9,5.4-19.2,13.2-24.1,24.4c-1.2,2.7-2.7,5.2-4,7.8
	c-4.5,8.8-10.8,15.7-18.9,21.4c-15.2,10.8-30.3,21.7-45,33c-6.7,5.2-12.6,11.5-18.5,17.6c-6.8,7-9.7,15.4-9.7,25.3
	c0,11.6-0.5,23.2-3.2,34.6c-2,8.7-6.4,15.8-13.7,21.2c-2.4,1.8-4.4,4.1-6.4,6.3c-4,4.3-8.5,7.7-13.9,10.1c-0.7,0.3-1.3,0.8-1.9,1.1
	c-0.2-0.3-0.4-0.6-0.4-0.9C110.4,677.7,110.4,674.4,110.4,671z"/>
</svg>
