<?xml version="1.0" encoding="utf-8"?>
<!-- Generator: Adobe Illustrator 17.1.0, SVG Export Plug-In . SVG Version: 6.00 Build 0)  -->
<!DOCTYPE svg PUBLIC "-//W3C//DTD SVG 1.1//EN" "http://www.w3.org/Graphics/SVG/1.1/DTD/svg11.dtd">
<svg version="1.1" id="Layer_1" xmlns="http://www.w3.org/2000/svg" xmlns:xlink="http://www.w3.org/1999/xlink" x="0px" y="0px"
	 width="472px" height="392px" viewBox="0 0 472 392" enable-background="new 0 0 472 392" xml:space="preserve">

<g id="Layer_2">
	
		<polyline fill="none" stroke="#AF3A46" stroke-width="4.9763" stroke-linecap="square" stroke-linejoin="round" stroke-miterlimit="10" points="
		238,171.1 245.2,109 260.4,86.9 267.7,110.8 265.1,174.8 	"/>
	
		<polyline fill="none" stroke="#AF3A46" stroke-width="4.9763" stroke-linecap="square" stroke-linejoin="round" stroke-miterlimit="10" points="
		180.2,182.4 173.8,144 184.1,123.6 200.1,139.2 206.6,176.2 	"/>
	
		<path fill="none" stroke="#AF3A46" stroke-width="4.9763" stroke-linecap="square" stroke-linejoin="round" stroke-miterlimit="10" d="
		M218.2,174.8c0,0-4.5-16.5-9-36.4c-4.8-21.3-9.7-43.8-9-45.1c1.3-2.6,5.4-4.8,8.9,0c2,2.7,7.9,21.6,13.5,40.5
		c6.3,21.1,12.2,42.3,11.9,40.8"/>
	<path fill="#AF3A46" stroke="#AF3A46" stroke-width="2.4882" stroke-miterlimit="10" d="M200.2,93.3c-11.6-12.2-10.4-19.2-6.6-23
		c6.6-6.6-2.8-16.6-0.9-16.8c6.6-0.6,28.6,9.6,17.3,36.9"/>
	
		<path fill="none" stroke="#AF3A46" stroke-width="4.9763" stroke-linecap="round" stroke-linejoin="round" stroke-miterlimit="10" d="
		M245.2,109c0,0,11.3-4.8,22.5,1.9"/>
	
		<path fill="#FFFBE8" stroke="#AF3A46" stroke-width="4.9763" stroke-linecap="round" stroke-linejoin="round" stroke-miterlimit="10" d="
		M200.1,139.2c0,4.7-12.2,4.7-12.2,4.7c-3.2,5.3-14.1,0-14.1,0"/>
	<path fill="#AF3A46" d="M190.9,130.3c3.4,3.3-12,3.5-12,3.5l5.1-10.2L190.9,130.3z"/>
	
		<path fill="none" stroke="#AF3A46" stroke-width="4.9763" stroke-linecap="round" stroke-linejoin="round" stroke-miterlimit="10" d="
		M211.8,141.6c7.7,0,11.4-6,11.4-6"/>
	
		<path fill="none" stroke="#AF3A46" stroke-width="4.9763" stroke-linecap="round" stroke-linejoin="round" stroke-miterlimit="10" d="
		M169,188.8L169,188.8c43.9-21.5,94.3-16.6,119.8-1.1L277,321.9c0,0-39.9,23.2-95.2-1.1L169,188.8z"/>
	
		<path fill="none" stroke="#AF3A46" stroke-width="4.8228" stroke-linecap="round" stroke-linejoin="round" stroke-miterlimit="10" d="
		M255.7,270.4l-2.2-32.6l-24.4-18.9L205,236.6c0.3,11.8,1.4,22.8,1.7,34.6C206.6,271.2,236,275.9,255.7,270.4z"/>
	
		<line fill="none" stroke="#AF3A46" stroke-width="5" stroke-linecap="round" stroke-linejoin="round" stroke-miterlimit="10" x1="229.5" y1="219" x2="229.5" y2="246"/>
	
		<path fill="none" stroke="#AF3A46" stroke-width="3.8582" stroke-linecap="round" stroke-linejoin="round" stroke-miterlimit="10" d="
		M233.2,240.8c-1.5,0-2.9,0.3-6.8,0.4c0,0-1-0.9-0.1,5.9c2.9,0.1,4,0.2,6.9,0.2C233.2,247.4,233.2,242.5,233.2,240.8z"/>
</g>
</svg>
