<?xml version="1.0" ?><!DOCTYPE svg  PUBLIC '-//W3C//DTD SVG 1.1//EN'  'http://www.w3.org/Graphics/SVG/1.1/DTD/svg11.dtd'><svg enable-background="new 0 0 64 64" height="64px" id="Layer_1" version="1.1" viewBox="0 0 64 64" width="64px" xml:space="preserve" xmlns="http://www.w3.org/2000/svg" xmlns:xlink="http://www.w3.org/1999/xlink"><path d="M59,45.268l-0.246-0.143c0.314-0.18,0.574-0.425,0.745-0.722c0.323-0.56,0.37-1.266,0.062-1.888  c-0.489-0.99-1.689-1.396-2.679-0.907l-2.272,1.124l-2.236-1.291l4.596-1.617c0.468-0.166,0.836-0.487,1.066-0.887  c0.281-0.487,0.357-1.092,0.155-1.664c-0.366-1.043-1.509-1.59-2.551-1.223l-7.829,2.757l-0.555-0.32l1.756-1.998  c0.09-0.101,0.166-0.209,0.23-0.321c0.468-0.809,0.315-1.861-0.412-2.5c-0.83-0.73-2.094-0.648-2.822,0.182l-2.283,2.598L41,34.878  v-5.756l2.725-1.57l2.283,2.599c0.729,0.83,1.992,0.911,2.822,0.182c0.728-0.64,0.88-1.691,0.412-2.5  c-0.064-0.112-0.141-0.22-0.23-0.321l-1.756-1.998l0.555-0.32l7.829,2.757c1.042,0.367,2.185-0.18,2.551-1.223  c0.202-0.573,0.126-1.177-0.155-1.665c-0.23-0.399-0.599-0.721-1.066-0.886l-4.596-1.618l2.236-1.291l2.272,1.124  c0.989,0.489,2.189,0.083,2.679-0.907c0.309-0.623,0.262-1.328-0.062-1.888c-0.171-0.297-0.431-0.542-0.745-0.722L59,18.732  c0.957-0.552,1.284-1.775,0.732-2.732c-0.553-0.957-1.775-1.285-2.732-0.732l-0.24,0.139c0.002-1.049-0.805-1.932-1.863-2  c-1.102-0.072-2.053,0.765-2.124,1.867l-0.163,2.53l-2.236,1.291l0.896-4.788c0.203-1.086-0.512-2.131-1.598-2.334  c-1.086-0.203-2.131,0.513-2.334,1.598l-1.527,8.158l-0.555,0.321l-0.852-2.52c-0.348-1.048-1.49-1.607-2.535-1.253  c-1.047,0.354-1.608,1.489-1.254,2.536l1.108,3.276l-2.759,1.589L34,22.839v-3.2l3.393-0.678c1.083-0.216,1.785-1.27,1.568-2.353  c-0.216-1.083-1.266-1.787-2.354-1.569L34,15.561V14.92l6.302-5.401c0.839-0.719,0.936-1.981,0.217-2.82  c-0.719-0.838-1.981-0.936-2.82-0.217L34,9.651V7.07l2.109-1.406c0.919-0.613,1.168-1.854,0.555-2.773  C36.074,2.006,34.906,1.75,34,2.278V2c0-1.104-0.896-2-2-2s-2,0.896-2,2v0.278c-0.906-0.526-2.075-0.271-2.664,0.613  c-0.613,0.919-0.364,2.161,0.555,2.773L30,7.07v2.581l-3.698-3.17c-0.839-0.719-2.102-0.621-2.82,0.217  c-0.719,0.839-0.622,2.102,0.217,2.82L30,14.92v0.641l-2.608-0.521c-1.081-0.218-2.137,0.486-2.353,1.569  c-0.217,1.083,0.485,2.137,1.569,2.353L30,19.639v3.2l-4.965,2.837l-2.758-1.589l1.108-3.276c0.355-1.047-0.207-2.182-1.253-2.536  c-1.045-0.354-2.188,0.206-2.535,1.253l-0.853,2.52l-0.555-0.321l-1.527-8.158c-0.203-1.085-1.249-1.8-2.334-1.598  c-1.085,0.203-1.8,1.249-1.598,2.334l0.896,4.788l-2.235-1.291l-0.164-2.53c-0.071-1.103-1.022-1.939-2.124-1.867  c-1.059,0.068-1.865,0.952-1.863,2L7,15.268C6.043,14.716,4.82,15.044,4.268,16S4.043,18.18,5,18.732l0.247,0.143  c-0.315,0.18-0.574,0.425-0.746,0.722c-0.323,0.56-0.37,1.266-0.062,1.888c0.489,0.99,1.689,1.396,2.679,0.907l2.273-1.124  l2.235,1.291l-4.595,1.618c-0.468,0.165-0.837,0.487-1.067,0.886c-0.281,0.488-0.357,1.092-0.155,1.665  c0.367,1.042,1.509,1.589,2.551,1.223l7.829-2.757l0.555,0.32l-1.756,1.998c-0.089,0.101-0.167,0.209-0.231,0.321  c-0.467,0.809-0.315,1.861,0.413,2.5c0.83,0.729,2.093,0.648,2.822-0.182l2.284-2.599L23,29.122v5.756l-2.724,1.569l-2.284-2.598  c-0.729-0.83-1.992-0.912-2.822-0.182c-0.728,0.639-0.88,1.691-0.413,2.5c0.064,0.112,0.142,0.221,0.231,0.321l1.756,1.998  l-0.555,0.32L8.36,36.051c-1.042-0.367-2.184,0.18-2.551,1.223c-0.202,0.572-0.126,1.177,0.155,1.664  c0.23,0.399,0.599,0.721,1.067,0.887l4.595,1.617l-2.235,1.291l-2.273-1.124c-0.99-0.489-2.189-0.083-2.679,0.907  c-0.308,0.622-0.262,1.328,0.062,1.888c0.171,0.297,0.43,0.542,0.746,0.722L5,45.268C4.043,45.82,3.716,47.043,4.268,48  C4.82,48.956,6.043,49.284,7,48.732l0.241-0.14c-0.002,1.049,0.804,1.933,1.863,2.001c1.102,0.071,2.053-0.766,2.124-1.867  l0.164-2.53l2.235-1.29l-0.896,4.787c-0.202,1.086,0.513,2.131,1.598,2.334s2.131-0.512,2.334-1.598l1.527-8.158l0.555-0.32  l0.853,2.52c0.347,1.048,1.489,1.607,2.535,1.254c1.047-0.354,1.608-1.489,1.253-2.536l-1.108-3.276l2.758-1.589L30,41.16v3.201  l-3.392,0.678c-1.083,0.217-1.786,1.27-1.569,2.354c0.216,1.082,1.272,1.791,2.353,1.568L30,48.439v0.641l-6.302,5.401  c-0.838,0.719-0.936,1.981-0.217,2.82s1.981,0.935,2.82,0.217L30,54.349v2.581l-2.109,1.406c-0.919,0.613-1.167,1.854-0.555,2.773  c0.589,0.883,1.757,1.139,2.664,0.613V62c0,1.104,0.896,2,2,2s2-0.896,2-2v-0.285C34.314,61.898,34.655,62,34.998,62  c0.646,0,1.281-0.313,1.666-0.891c0.613-0.919,0.364-2.16-0.555-2.773L34,56.93v-2.581l3.698,3.17  C38.076,57.842,38.539,58,38.999,58c0.563,0,1.124-0.236,1.52-0.698c0.719-0.839,0.622-2.102-0.217-2.82L34,49.08v-0.641  l2.607,0.521C36.74,48.988,36.872,49,37.002,49c0.934,0,1.77-0.657,1.959-1.607c0.217-1.084-0.485-2.137-1.568-2.354L34,44.361  V41.16l4.965-2.837l2.759,1.589l-1.108,3.276c-0.354,1.047,0.207,2.182,1.254,2.536c1.045,0.354,2.188-0.206,2.535-1.254l0.852-2.52  l0.555,0.32l1.527,8.158c0.203,1.086,1.248,1.801,2.334,1.598s1.801-1.248,1.598-2.334l-0.896-4.787l2.236,1.29l0.163,2.53  c0.071,1.102,1.022,1.938,2.124,1.867c1.059-0.068,1.865-0.952,1.863-2.001l0.24,0.14c0.957,0.552,2.18,0.224,2.732-0.732  C60.284,47.043,59.957,45.82,59,45.268z M27,34.84v-5.679l5-2.857l5,2.857v5.679l-5,2.856L27,34.84z"/></svg>