<?xml version="1.0" encoding="UTF-8" standalone="no"?>
<!DOCTYPE svg PUBLIC "-//W3C//DTD SVG 1.0//EN" "http://www.w3.org/TR/2001/REC-SVG-20010904/DTD/svg10.dtd">
<svg
   xmlns:svg="http://www.w3.org/2000/svg"
   xmlns="http://www.w3.org/2000/svg"
   version="1.0"
   width="397"
   height="411"
   id="svg2">
  <defs
     id="defs6" />
  <path
     d="M 183.3125,43.09375 L 183.3125,83.8125 L 152.71875,66.125 L 137.1875,92.9375 L 183.3125,119.65625 L 183.3125,179.75 L 131.5,149.8125 L 131.40625,96.28125 L 100.40625,96.34375 L 100.46875,131.90625 L 65.09375,111.46875 L 49.59375,138.3125 L 84.875,158.6875 L 54.25,176.3125 L 69.6875,203.1875 L 115.90625,176.59375 L 167.90625,206.625 L 116.09375,236.53125 L 69.6875,209.84375 L 54.25,236.71875 L 85.0625,254.46875 L 49.6875,274.875 L 65.1875,301.71875 L 100.46875,281.34375 L 100.40625,316.6875 L 131.40625,316.75 L 131.5,263.4375 L 183.5,233.4375 L 183.5,293.25 L 137.1875,320.09375 L 152.71875,346.90625 L 183.5,329.09375 L 183.5,369.9375 L 214.5,369.9375 L 214.5,329.21875 L 245.09375,346.90625 L 260.625,320.09375 L 214.5,293.375 L 214.5,233.28125 L 266.3125,263.21875 L 266.40625,316.75 L 297.40625,316.6875 L 297.34375,281.125 L 332.71875,301.5625 L 348.21875,274.71875 L 312.9375,254.34375 L 343.5625,236.71875 L 328.125,209.84375 L 281.9375,236.4375 L 229.90625,206.40625 L 281.75,176.46875 L 328.125,203.1875 L 343.5625,176.3125 L 312.75,158.5625 L 348.125,138.15625 L 332.625,111.3125 L 297.34375,131.6875 L 297.40625,96.34375 L 266.40625,96.28125 L 266.3125,149.59375 L 214.3125,179.59375 L 214.3125,119.78125 L 260.625,92.9375 L 245.09375,66.125 L 214.3125,83.9375 L 214.3125,43.09375 L 183.3125,43.09375 z"
     id="rect2991"
     style="fill:#3d7dab;fill-opacity:1;stroke:none" />
</svg>
